<svg version="1" xmlns="http://www.w3.org/2000/svg" width="682.667" height="682.667" viewBox="0 0 512.000000 512.000000"><path d="M407.9 53.4c-.1.1-.2 4.1-.3 8.9-.2 8.8.4 10.4 3.4 10.3 1.2-.1 1.5-1.8 1.5-9.5 0-9.1-.1-9.4-2.2-9.6-1.3-.1-2.4-.1-2.4-.1zM60.5 69.2v9.3l2.8.3 2.7.3V60h-5.6l.1 9.2zM117.2 79.7c0 9.8 0 18.8-.1 20-.1 2.1-.6 2.3-5.6 2.3-5.2 0-5.5.1-5.5 2.5 0 2.7.3 2.8 6.8 2.5 4.8-.2 4.5-.9 4.4 12.2-.1 6.5.2 7.9 1.6 8.7 3.3 1.7 4-.1 4.1-10.4.1-5.5.6-10.2 1.1-10.3 1.3-.5 1.3-4.9-.1-5.4-.7-.2-1-7.1-1-20.1V62h-5.6l-.1 17.7zM407.5 93.5c0 7 .3 9.5 1.2 9.5.7 0 1.3.9 1.3 1.9 0 2.3 2.9 2.8 12.8 2.3 5.8-.3 6.2-.5 6.2-2.8 0-2.6-.2-2.7-10.2-2.4l-5.8.1V84h-5.5v9.5zM60.9 90.7c-.1.5-.2 3-.3 5.8l-.1 5-7.7.3c-7.5.3-7.8.4-7.8 2.7 0 2.7 1.4 3 11.3 2.5 2.1-.1 3.7.3 3.7.9 0 .6 1.4 1.1 3 1.1h3l-.1-9.5c-.1-9.3-.1-9.5-2.5-9.5-1.3 0-2.5.3-2.5.7zM22.8 101.8c-7.5.3-7.8.4-7.8 2.7 0 2.9.9 3.1 11.1 2.7 7.5-.3 7.9-.5 7.9-2.7 0-2.8-1.2-3.1-11.2-2.7zM78.5 102c-2.2.4-3 1.1-3 2.5 0 1.7.8 2.1 6.5 2.5 10.2.8 12.8.3 12.6-2.6 0-1.3-.5-2.4-1.1-2.5-6.5-.3-12.6-.3-15 .1zM143.3 101.8c-7 .3-7.3.4-7.1 2.7.1 1.4.5 2.5.8 2.5.3.1 4.4.2 9.2.3l8.6.2.4-2.7c.5-3.1-.8-3.5-11.9-3zM167.8 102.1c-1.1.7-.7 5.5.5 5.1.4-.1 4.5-.2 9.1-.2 8.2 0 8.4 0 8.4-2.5 0-2-.6-2.5-2.7-2.6-1.4 0-5.2-.1-8.4-.2-3.3-.1-6.3.1-6.9.4zM202.8 101.8c-5.4.3-5.8.5-5.8 2.7 0 2.6.1 2.7 10.5 2.7 8.3 0 8.5-.1 8.5-2.6 0-2-.6-2.4-3.7-2.7-2.1-.2-6.4-.3-9.5-.1zM264.3 101.8c-6.1.3-6.3.4-6.3 3v2.7l7.7-.2c4.3-.1 8.6-.2 9.6-.3 1.1 0 1.7-.8 1.7-2.4 0-2.8-2.4-3.3-12.7-2.8zM295.3 101.8c-6.4.3-7.3.5-7.3 2.2 0 2.8 1.3 3.2 10.3 3.2 8 0 8.2-.1 8.5-2.5.4-3-1.1-3.3-11.5-2.9zM326.5 102c-7.3.5-8 .7-7.7 2.5.2 1.1.5 2.1.5 2.2.5.4 3.9.5 10.7.4 6.8-.1 7.6-.3 7.7-2.1.2-2.9-2.2-3.6-11.2-3zM357.8 101.8c-8.5.3-8.8.4-8.8 2.7 0 2.8 1.8 3.2 12.3 2.7 6.3-.3 6.7-.5 6.7-2.7 0-1.3-.3-2.5-.7-2.7-.5-.2-4.7-.2-9.5 0zM444.8 101.8c-4.3.3-4.8.5-4.8 2.8 0 2.6.3 2.7 9.8 2.4l5.4-.2-.2 3.4c-.1 1.8-.2 5-.1 7 .1 3.4.4 3.8 2.6 3.8 1.8 0 2.5-.5 2.6-2 0-1.1 0-5.3.1-9.3v-7.2l-5.3-.5c-3-.3-7.5-.4-10.1-.2zM471.7 102.2c-1.3.8-1.7 4.8-.5 4.9h7.3c12 0 11.5.1 11.1-2.4-.3-2-.9-2.2-8.5-2.7-4.6-.3-8.8-.2-9.4.2zM227.4 104.2c.1 2.7 3.6 3.5 13.2 3 5.8-.3 6.2-.5 6-2.8-.1-2.4-.2-2.4-9.7-2.4-9.4 0-9.6.1-9.5 2.2zM379.9 102.2c-1.2 4.2-.9 4.7 3.9 5 2.6.2 7 .1 9.8 0 4.8-.3 5.2-.6 5-2.8-.1-2.4-.3-2.4-9.3-2.4-5.1 0-9.3.1-9.4.2zM407.9 115.3c-.1.6-.2 4.9-.3 9.4l-.1 8.3h5.5v-9.3c0-9.2 0-9.3-2.5-9.5-1.4-.1-2.6.4-2.6 1.1zM60.8 121.4c-.4 1-.3 12.3.1 16.7.1 1 .9 1.6 2.4 1.5 2.1-.1 2.2-.4 2.2-9.6 0-9.1-.1-9.5-2.2-9.6-1.2-.1-2.4.4-2.5 1zM454.8 136.7c-.1 2.7-.2 6.9 0 9.5.3 4.3.6 4.8 2.7 4.8s2.4-.5 2.7-4.3c.2-2.3.1-6.6 0-9.5-.4-4.7-.6-5.2-2.7-5.2-2 0-2.3.6-2.7 4.7zM151.5 181.9l-85 48.7-.3-9.2c-.3-8.8-.4-9.2-2.7-9.6-3-.6-3.2-.1-2.9 9.7.2 10.3.1 9.8 2.5 9.2 1.3-.4 1.9-.1 1.6.6-.3.9 5.7 1.2 24.9 1.2 24.8 0 25.4 0 25.5 2 0 1.1.1 30 .1 64.2l.1 62.3H144V258h74.5v51.5l-.1 51.5h143.4l-.1-64.3v-64.2h25.5c14.1 0 25.4-.3 25.2-.6-.3-.6-6.4-4.1-23.4-13.7-1.9-1-28.5-16.2-59-33.7-30.5-17.5-57.5-32.9-60-34.3-2.5-1.4-10.3-5.8-17.3-9.9-7.1-4-13.6-7.3-14.5-7.2-1 .1-39.9 22-86.7 48.8zM288 284.5V310h-48.7l.2-25.3c.1-13.8.3-25.3.3-25.5.1-.1 11-.2 24.2-.2h24v25.5zm54-22c.1 1.9.1 12.3.1 23s0 20.6-.1 22v2.5l-24.2-.2-24.3-.3-.1-24c0-13.2.2-24.6.4-25.3.3-.9 6.1-1.2 24.3-1.2H342v3.5zM407.9 145c-.4 1.8-.4 18 .1 18.1 5 1.2 5 1.2 5-9 0-9.6 0-9.6-2.5-9.6-1.4 0-2.6.2-2.6.5zM60.5 160.2v9.3l2.8.3 2.7.3V151h-5.6l.1 9.2zM454.9 163.7v7.8c0 11-.1 10.5 2.4 10.1 1.2-.3 2.4-.5 2.7-.5.3-.1.4-3.4.3-7.3-.1-4-.2-8.2-.3-9.4 0-1.5-.7-2-2.5-2-1.4 0-2.5.6-2.6 1.3zM407.8 176.2c-.2.7-.4 4.9-.4 9.3.1 8 .1 8 2.9 8.3l2.7.3v-9.5c0-9.5 0-9.6-2.4-9.6-1.3 0-2.6.6-2.8 1.2zM60.9 181.4c-.1 0-.2 4.1-.3 8.9-.1 7.2.1 9 1.4 9.7 3.3 1.8 4.1-.3 3.8-9.6-.3-8.4-.4-8.9-2.5-9-1.3-.1-2.4-.1-2.4 0zM454.8 199.2c-.5 10.6-.1 12.8 2.8 12.8 2.6 0 2.6 0 2.6-11 0-7.9-.1-8-2.6-8-2.3 0-2.5.4-2.8 6.2zM408.5 205.8c-.6.4-1 4.2-.9 8.9.2 10.6 0 10 2.7 9.8 2.1-.2 2.2-.6 2.5-9 .2-6.4-.1-9.1-1-9.7-1.6-1-2-1-3.3 0zM455 227.1v3.9h-10.4c-5.8 0-10.7.3-10.9.7-.2.5-.1 1.7.2 2.8.5 1.8 1.5 2 10.6 2 9.9 0 10 0 10 2.4 0 1.6.8 2.7 2.3 3.2 2.4.9 2.7.5 3.4-3.6.3-1.9 1.2-2 22.3-2.2 12.1 0 22.5-.2 23.1-.2.6-.1 1-1.1.9-2.4l-.2-2.2-23.2-.3-23.3-.2.4-3.7c.3-3.5.1-3.8-2.5-4-2.5-.2-2.7.1-2.7 3.8z"/><path d="M407.5 245.2l.1 9.1 2.7.4 2.7.4V236h-5.6l.1 9.2zM60.9 242.2c-.1.2-.2 4.5-.3 9.5l-.2 9.3H66v-9.5c0-9.5 0-9.5-2.5-9.5-1.4 0-2.6.1-2.6.2zM454.9 255.1v16.4c.1 2.4 5.1 1.5 5.2-1 .2-4.9-.1-15.8-.4-16.2-.3-.2-1.4-.5-2.6-.8-1.5-.3-2.1.1-2.2 1.6zM407.5 275.5v9.5h5.5v-18.6l-2.8-.2-2.7-.2v9.5zM61.3 272.9c-.5.3-.9 4.4-.9 9.1 0 6.7.4 8.6 1.6 9.1 3.3 1.4 4-.1 4-9.1 0-7.8-.2-8.8-1.9-9.3-1-.2-2.3-.2-2.8.2zM454.8 288.7c-.1 2.7-.2 6.9 0 9.5.3 4.3.5 4.8 2.8 4.8 2.5 0 2.6-.2 2.6-10 0-8.7-.1-9-2.6-9-2.2 0-2.4.5-2.8 4.7zM407.9 296.8c-.6 3.5-.3 18.2.3 18.3 4.3.7 4.3.7 4.6-8.9.1-5-.1-9.2-.5-9.3-.4 0-1.6-.2-2.5-.4-1-.2-1.8 0-1.9.3zM60.5 312.2v9.3l2.8.3 2.7.3V303h-5.6l.1 9.2zM454.9 315.7c-.1.7-.1 2.4-.1 3.8 0 13 .2 14.3 2 14 .9-.2 2.2-.4 2.7-.4.9-.1 1-3.6.6-16.4-.1-1.8-.7-2.3-2.6-2.3-1.4 0-2.5.6-2.6 1.3zM407.8 327.7c-.3.5-.4 4.6-.4 9.3l.1 8.5 2.8.3 2.7.3v-9.5c0-9.5 0-9.6-2.4-9.6-1.4 0-2.6.3-2.8.7zM60.8 334.3c-.3.6-.4 4.8-.4 9.2.1 8 .1 8 2.9 8.3l2.7.3v-9.3c0-9.2-.1-9.4-2.4-9.6-1.3-.1-2.6.4-2.8 1.1zM454.8 351.3c-.5 9.1.2 12.1 3 12.5 1.8.3 2.2-.2 2.3-2.5.1-2.9.1-14.2 0-15.6-.1-.4-1.2-.7-2.5-.7-2.3 0-2.5.4-2.8 6.3zM407.9 357.5c-.1 0-.2 4-.3 8.8-.1 7.1.2 9 1.4 9.6 3.3 1.8 4 .2 4-9.5V357l-2.5.2c-1.4.1-2.6.3-2.6.3zM61.9 363.7c-1.3.3-1.5 1.8-1.3 9.1.1 4.8.2 9 .3 9.4.1.5 1.1.6 2.4.4 2.1-.3 2.2-.8 2.5-9.3.3-9.3-.2-10.4-3.9-9.6zM95.6 375.8c-1.4.3-1.6 1.4-1.5 6.8.1 3.5 0 6.7-.3 6.9-.2.3-4.3.5-9 .6-8.3.1-8.6.2-9.1 2.5-.2 1.4-.2 2.6.2 2.8.3.2 4.7.3 9.6.2 6.4-.1 8.9-.5 8.8-1.4-.4-1.7 11.4-1.7 12 0 .5 1.8 18.7 1.9 18.7.1 0-.9 1.8-1.3 6-1.3 4.4 0 5.8.3 5.4 1.3-.3 1 1.7 1.3 9.1 1.3 7.3.1 9.5-.3 9.5-1.3 0-.9 1.7-1.3 6-1.3s6 .4 6 1.3c0 1.1 2.2 1.4 9.4 1.3 5.8-.1 9.4-.5 9.3-1.1-.1-.5 2.4-1.1 5.6-1.3 4.2-.2 5.7 0 5.7 1 0 1.1 2.3 1.4 9.5 1.4s9.5-.3 9.5-1.3c0-.9 1.7-1.3 6-1.3 4.1 0 5.9.4 5.7 1.2-.1.8 2.6 1.2 9.1 1.4 7.3.1 9.2-.1 9.2-1.2 0-1 1.5-1.4 6-1.4 4.4 0 6 .4 6 1.3 0 1.9 18.2 1.7 18.8-.1.5-1.7 10.9-1.6 11.4 0 .7 1.9 18.8 1.9 18.8.1 0-.9 1.7-1.3 6-1.3 4.4 0 6 .4 6 1.4 0 1.8 18.2 1.6 18.8-.2.5-1.7 11.2-1.6 11.2.1 0 1.8 18.1 1.8 18.8-.1.5-1.6 12.3-1.7 12 0-.2.8 2.5 1.2 9.3 1.3 8.3.1 9.6-.1 9.4-1.4-.2-.9-.4-2.2-.4-2.9-.1-1-1.7-1.3-5.8-1.2-10 .3-9.3.8-9.3-7 0-4.9-.4-7-1.2-7.1-3.4-.3-284.7-.4-286.2-.1zM454.9 378.2c-.1 1.8-.1 5.2 0 7.5l.1 4.3h-14.7l.1 2.7.1 2.8h9.2l9.3.1.7-3.6c.3-1.9.6-5 .5-6.8 0-1.7-.1-4.8-.1-6.7-.1-3-.4-3.5-2.6-3.5-2.1 0-2.5.5-2.6 3.2zM409 387.8c-1.2.6-1.5 2.6-1.5 9.7 0 8.9.1 9 2.5 9 2.3 0 2.5-.4 3-5.4l.5-5.5 7.5-.1c7.5 0 7.5 0 7.8-2.8l.3-2.8-7.5.2c-5.7.1-7.8-.2-9.1-1.5-.9-.9-1.7-1.6-1.8-1.5-.1 0-.9.3-1.7.7zM15 392.8v2.8h9.3c9.1-.1 9.2-.1 9.2-2.6s-.1-2.5-9.2-2.8L15 390v2.8zM45 392.7c0 2.5 0 2.5 8.2 2.7 3.1.1 6 .5 6.5.9.4.5.9 3.9.9 7.5.2 9.4.1 9.2 2.9 9.2 2.5 0 2.5 0 2.5-9.5 0-5.7-.4-9.5-1-9.5-.5 0-1-.9-1-2 0-1.8-.7-1.9-9.5-1.8-9.2.2-9.5.3-9.5 2.5zM470.8 391.2c-1.3 3.8.1 4.4 9.5 4.4 9.1-.1 9.2-.1 9.2-2.6s-.1-2.5-9.2-2.8c-6.7-.2-9.2.1-9.5 1zM407.6 424.7c.1 3.8.2 7.1.3 7.5 0 .5 1.2.8 2.6.8 2.4 0 2.5-.2 2.5-7.5V418h-5.6l.2 6.7zM60.9 424.9c-.1.3-.2 3.6-.3 7.3l-.2 6.8H66.1l-.3-7.3c-.3-6.7-.5-7.2-2.5-7.3-1.3-.1-2.4.1-2.4.5zM136.6 424.8c-.2.4-.4 8-.4 16.9 0 11.7.3 16.3 1.1 16.4.7 0 1.9.2 2.8.4 1.3.2 1.5-.9 1.5-6.9v-7.1l38.2-.2 38.2-.1v7.2c0 7.7-.1 7.5 5 6.7.8-.2.6-33.1-.2-33.2-4.2-.7-4.3-.5-4.6 6.8l-.3 7.1-38.2-.1-38.1-.2v-6.8c.1-3.7-.2-6.7-.5-6.8-.3 0-1.4-.2-2.3-.4-1-.2-2 0-2.2.3z"/></svg>