<svg xmlns="http://www.w3.org/2000/svg" xmlns:xlink="http://www.w3.org/1999/xlink" viewBox="0 0 240 434.84"><defs><style>.a,.b,.c{fill-rule:evenodd;}.a{fill:url(#a);}.b{fill:url(#b);}.c{fill:#2b2a29;}.d{fill:#fefefe;}</style><radialGradient id="a" cx="58.74" cy="845.62" r="70.96" gradientTransform="matrix(-5.55, 0, 0, 5.5, 554.02, -4607.01)" gradientUnits="userSpaceOnUse"><stop offset="0.15" stop-color="#ffc300"/><stop offset="0.4" stop-color="#ff8705"/><stop offset="0.5" stop-color="#ff7c05"/><stop offset="0.85" stop-color="#e74623"/></radialGradient><radialGradient id="b" cx="2.16" cy="845.79" r="74.16" gradientTransform="matrix(-5.55, 0, 0, 5.5, 240, -4630.96)" xlink:href="#a"/></defs><title>logo-footer</title><polygon class="a" points="240 23.95 0 23.95 0 400.8 119.99 434.84 240 400.6 240 23.95 240 23.95"/><polygon class="b" points="240 0 0 0 0 395.37 119.96 429.41 240 395.17 240 0 240 0"/><polygon class="c" points="36.1 185.42 36.1 69.56 36.1 62.79 42.87 62.79 70.07 62.79 76.83 62.79 76.83 69.56 76.83 104.37 136.3 62.79 198.69 62.79 108.23 124.14 186.66 179.92 203.9 192.18 182.74 192.18 139.46 192.18 137.27 192.18 135.47 190.86 76.83 147.81 76.83 185.42 76.83 192.18 70.07 192.18 42.87 192.18 36.1 192.18 36.1 185.42 36.1 185.42"/><path class="d" d="M210.2,388.94V266.32a3.54,3.54,0,0,1,3.54-3.54h40.73a3.54,3.54,0,0,1,3.54,3.54v34.79l53.9-37.68a3.52,3.52,0,0,1,2-.64h62.39a3.54,3.54,0,0,1,1.71,6.65l-86,58.31,74.28,52.83,17.24,12.26a3.53,3.53,0,0,1-2,6.41H314.91a3.53,3.53,0,0,1-2.27-.82L311,397.24l-53-38.92v37.39a3.54,3.54,0,0,1-3.54,3.54H213.74a3.54,3.54,0,0,1-3.54-3.54v-6.76Zm7.09-115.86V392.16h33.64V351.33h0a3.53,3.53,0,0,1,5.63-2.85l58.64,43.05.86.63h54.4l-8.21-5.84-78.42-55.78h0a3.53,3.53,0,0,1,.07-5.8l80.92-54.88H315L256.75,310.6a3.54,3.54,0,0,1-5.82-2.71v-38H217.29v3.22Z" transform="translate(-177.64 -203.53)"/></svg>